<mxfile host="app.diagrams.net" agent="Mozilla/5.0 (X11; Linux x86_64) AppleWebKit/537.36 (KHTML, like Gecko) Chrome/135.0.0.0 Safari/537.36" version="27.0.9" pages="2">
  <diagram name="Página-1" id="WsA4Rrwox_fei_d7IAPs">
    <mxGraphModel dx="1372" dy="719" grid="1" gridSize="10" guides="1" tooltips="1" connect="1" arrows="1" fold="1" page="1" pageScale="1" pageWidth="827" pageHeight="1169" math="0" shadow="0">
      <root>
        <mxCell id="0" />
        <mxCell id="1" parent="0" />
        <mxCell id="0Tmd56p7xsm4xkP--Wbr-2" style="edgeStyle=orthogonalEdgeStyle;rounded=0;orthogonalLoop=1;jettySize=auto;html=1;" parent="1" source="0Tmd56p7xsm4xkP--Wbr-1" target="0Tmd56p7xsm4xkP--Wbr-3" edge="1">
          <mxGeometry relative="1" as="geometry">
            <mxPoint x="390.0000000000002" y="210" as="targetPoint" />
          </mxGeometry>
        </mxCell>
        <mxCell id="0Tmd56p7xsm4xkP--Wbr-1" value="Web APP/ Mobile" style="rounded=1;whiteSpace=wrap;html=1;" parent="1" vertex="1">
          <mxGeometry x="330" y="80" width="120" height="60" as="geometry" />
        </mxCell>
        <mxCell id="0Tmd56p7xsm4xkP--Wbr-11" style="edgeStyle=orthogonalEdgeStyle;rounded=0;orthogonalLoop=1;jettySize=auto;html=1;entryX=0.364;entryY=0;entryDx=0;entryDy=0;entryPerimeter=0;exitX=0.5;exitY=1;exitDx=0;exitDy=0;" parent="1" source="0Tmd56p7xsm4xkP--Wbr-3" edge="1">
          <mxGeometry relative="1" as="geometry">
            <mxPoint x="120.0000000000002" y="340" as="targetPoint" />
            <mxPoint x="399.9600000000002" y="230" as="sourcePoint" />
            <Array as="points">
              <mxPoint x="390" y="260" />
              <mxPoint x="120" y="260" />
            </Array>
          </mxGeometry>
        </mxCell>
        <mxCell id="0Tmd56p7xsm4xkP--Wbr-12" style="edgeStyle=orthogonalEdgeStyle;rounded=0;orthogonalLoop=1;jettySize=auto;html=1;entryX=0.5;entryY=0;entryDx=0;entryDy=0;" parent="1" source="0Tmd56p7xsm4xkP--Wbr-3" target="0Tmd56p7xsm4xkP--Wbr-8" edge="1">
          <mxGeometry relative="1" as="geometry" />
        </mxCell>
        <mxCell id="0Tmd56p7xsm4xkP--Wbr-13" style="edgeStyle=orthogonalEdgeStyle;rounded=0;orthogonalLoop=1;jettySize=auto;html=1;entryX=0.5;entryY=0;entryDx=0;entryDy=0;" parent="1" source="0Tmd56p7xsm4xkP--Wbr-3" target="0Tmd56p7xsm4xkP--Wbr-9" edge="1">
          <mxGeometry relative="1" as="geometry" />
        </mxCell>
        <mxCell id="0Tmd56p7xsm4xkP--Wbr-14" style="edgeStyle=orthogonalEdgeStyle;rounded=0;orthogonalLoop=1;jettySize=auto;html=1;entryX=0.5;entryY=0;entryDx=0;entryDy=0;" parent="1" source="0Tmd56p7xsm4xkP--Wbr-3" target="0Tmd56p7xsm4xkP--Wbr-10" edge="1">
          <mxGeometry relative="1" as="geometry">
            <Array as="points">
              <mxPoint x="390" y="260" />
              <mxPoint x="645" y="260" />
            </Array>
          </mxGeometry>
        </mxCell>
        <mxCell id="0Tmd56p7xsm4xkP--Wbr-3" value="Ocelot Gateway" style="rounded=1;whiteSpace=wrap;html=1;" parent="1" vertex="1">
          <mxGeometry x="325" y="210" width="130" height="30" as="geometry" />
        </mxCell>
        <mxCell id="0Tmd56p7xsm4xkP--Wbr-4" value="" style="endArrow=none;dashed=1;html=1;dashPattern=1 3;strokeWidth=2;rounded=0;" parent="1" edge="1">
          <mxGeometry width="50" height="50" relative="1" as="geometry">
            <mxPoint x="40" y="280" as="sourcePoint" />
            <mxPoint x="740" y="280" as="targetPoint" />
            <Array as="points">
              <mxPoint x="370" y="280" />
            </Array>
          </mxGeometry>
        </mxCell>
        <mxCell id="0Tmd56p7xsm4xkP--Wbr-7" value="Auth Service" style="rounded=1;whiteSpace=wrap;html=1;" parent="1" vertex="1">
          <mxGeometry x="70" y="350" width="110" height="50" as="geometry" />
        </mxCell>
        <mxCell id="0Tmd56p7xsm4xkP--Wbr-21" style="edgeStyle=orthogonalEdgeStyle;rounded=0;orthogonalLoop=1;jettySize=auto;html=1;entryX=0.25;entryY=0;entryDx=0;entryDy=0;" parent="1" source="0Tmd56p7xsm4xkP--Wbr-8" target="0Tmd56p7xsm4xkP--Wbr-15" edge="1">
          <mxGeometry relative="1" as="geometry" />
        </mxCell>
        <mxCell id="0Tmd56p7xsm4xkP--Wbr-8" value="Médico Service" style="rounded=1;whiteSpace=wrap;html=1;" parent="1" vertex="1">
          <mxGeometry x="250" y="350" width="110" height="50" as="geometry" />
        </mxCell>
        <mxCell id="0Tmd56p7xsm4xkP--Wbr-9" value="Paciente Service" style="rounded=1;whiteSpace=wrap;html=1;" parent="1" vertex="1">
          <mxGeometry x="420" y="350" width="110" height="50" as="geometry" />
        </mxCell>
        <mxCell id="0Tmd56p7xsm4xkP--Wbr-23" style="edgeStyle=orthogonalEdgeStyle;rounded=0;orthogonalLoop=1;jettySize=auto;html=1;entryX=0.75;entryY=0;entryDx=0;entryDy=0;" parent="1" source="0Tmd56p7xsm4xkP--Wbr-10" target="0Tmd56p7xsm4xkP--Wbr-15" edge="1">
          <mxGeometry relative="1" as="geometry" />
        </mxCell>
        <mxCell id="0Tmd56p7xsm4xkP--Wbr-10" value="Agenda Service" style="rounded=1;whiteSpace=wrap;html=1;" parent="1" vertex="1">
          <mxGeometry x="590" y="350" width="110" height="50" as="geometry" />
        </mxCell>
        <mxCell id="0Tmd56p7xsm4xkP--Wbr-24" style="edgeStyle=orthogonalEdgeStyle;rounded=0;orthogonalLoop=1;jettySize=auto;html=1;" parent="1" source="0Tmd56p7xsm4xkP--Wbr-15" edge="1">
          <mxGeometry relative="1" as="geometry">
            <mxPoint x="250" y="500" as="targetPoint" />
          </mxGeometry>
        </mxCell>
        <mxCell id="0Tmd56p7xsm4xkP--Wbr-15" value="Read Model" style="rounded=1;whiteSpace=wrap;html=1;" parent="1" vertex="1">
          <mxGeometry x="340" y="470" width="290" height="60" as="geometry" />
        </mxCell>
        <mxCell id="0Tmd56p7xsm4xkP--Wbr-16" value="Sql&amp;nbsp;&lt;div&gt;Server&lt;/div&gt;" style="shape=cylinder3;whiteSpace=wrap;html=1;boundedLbl=1;backgroundOutline=1;size=15;" parent="1" vertex="1">
          <mxGeometry x="180" y="450" width="60" height="80" as="geometry" />
        </mxCell>
        <mxCell id="0Tmd56p7xsm4xkP--Wbr-22" style="edgeStyle=orthogonalEdgeStyle;rounded=0;orthogonalLoop=1;jettySize=auto;html=1;entryX=0.458;entryY=-0.05;entryDx=0;entryDy=0;entryPerimeter=0;" parent="1" source="0Tmd56p7xsm4xkP--Wbr-9" target="0Tmd56p7xsm4xkP--Wbr-15" edge="1">
          <mxGeometry relative="1" as="geometry">
            <Array as="points">
              <mxPoint x="473" y="420" />
              <mxPoint x="473" y="420" />
            </Array>
          </mxGeometry>
        </mxCell>
        <mxCell id="0Tmd56p7xsm4xkP--Wbr-25" value="MongoDB" style="shape=cylinder3;whiteSpace=wrap;html=1;boundedLbl=1;backgroundOutline=1;size=15;" parent="1" vertex="1">
          <mxGeometry x="170" y="570" width="70" height="80" as="geometry" />
        </mxCell>
        <mxCell id="0Tmd56p7xsm4xkP--Wbr-26" style="edgeStyle=orthogonalEdgeStyle;rounded=0;orthogonalLoop=1;jettySize=auto;html=1;entryX=1;entryY=0;entryDx=0;entryDy=52.5;entryPerimeter=0;" parent="1" source="0Tmd56p7xsm4xkP--Wbr-15" target="0Tmd56p7xsm4xkP--Wbr-25" edge="1">
          <mxGeometry relative="1" as="geometry">
            <Array as="points">
              <mxPoint x="485" y="623" />
              <mxPoint x="290" y="623" />
            </Array>
          </mxGeometry>
        </mxCell>
        <mxCell id="udznyl5b8GPecYZE8sWf-1" value="Assets" style="childLayout=tableLayout;recursiveResize=0;shadow=1;fillColor=#b1ddf0;strokeColor=#10739e;" vertex="1" parent="1">
          <mxGeometry x="130" y="770" width="450" height="333" as="geometry" />
        </mxCell>
        <mxCell id="udznyl5b8GPecYZE8sWf-2" style="shape=tableRow;horizontal=0;startSize=0;swimlaneHead=0;swimlaneBody=0;top=0;left=0;bottom=0;right=0;dropTarget=0;collapsible=0;recursiveResize=0;expand=0;fontStyle=0;strokeColor=inherit;fillColor=#ffffff;" vertex="1" parent="udznyl5b8GPecYZE8sWf-1">
          <mxGeometry width="450" height="43" as="geometry" />
        </mxCell>
        <mxCell id="udznyl5b8GPecYZE8sWf-3" value="Requisito" style="connectable=0;recursiveResize=0;align=center;fontStyle=1;html=1;fillColor=#b0e3e6;strokeColor=#0e8088;" vertex="1" parent="udznyl5b8GPecYZE8sWf-2">
          <mxGeometry width="161" height="43" as="geometry">
            <mxRectangle width="161" height="43" as="alternateBounds" />
          </mxGeometry>
        </mxCell>
        <mxCell id="udznyl5b8GPecYZE8sWf-4" value="Serviço" style="connectable=0;recursiveResize=0;align=center;fontStyle=1;html=1;fillColor=#b0e3e6;strokeColor=#0e8088;" vertex="1" parent="udznyl5b8GPecYZE8sWf-2">
          <mxGeometry x="161" width="144" height="43" as="geometry">
            <mxRectangle width="144" height="43" as="alternateBounds" />
          </mxGeometry>
        </mxCell>
        <mxCell id="udznyl5b8GPecYZE8sWf-5" value="Obs" style="connectable=0;recursiveResize=0;align=center;fontStyle=1;html=1;fillColor=#b0e3e6;strokeColor=#0e8088;" vertex="1" parent="udznyl5b8GPecYZE8sWf-2">
          <mxGeometry x="305" width="145" height="43" as="geometry">
            <mxRectangle width="145" height="43" as="alternateBounds" />
          </mxGeometry>
        </mxCell>
        <mxCell id="udznyl5b8GPecYZE8sWf-6" value="" style="shape=tableRow;horizontal=0;startSize=0;swimlaneHead=0;swimlaneBody=0;top=0;left=0;bottom=0;right=0;dropTarget=0;collapsible=0;recursiveResize=0;expand=0;fontStyle=0;strokeColor=inherit;fillColor=#ffffff;" vertex="1" parent="udznyl5b8GPecYZE8sWf-1">
          <mxGeometry y="43" width="450" height="42" as="geometry" />
        </mxCell>
        <mxCell id="udznyl5b8GPecYZE8sWf-7" value="Login Médico" style="connectable=0;recursiveResize=0;align=center;whiteSpace=wrap;html=1;" vertex="1" parent="udznyl5b8GPecYZE8sWf-6">
          <mxGeometry width="161" height="42" as="geometry">
            <mxRectangle width="161" height="42" as="alternateBounds" />
          </mxGeometry>
        </mxCell>
        <mxCell id="udznyl5b8GPecYZE8sWf-8" value="AuthService" style="connectable=0;recursiveResize=0;align=center;whiteSpace=wrap;html=1;" vertex="1" parent="udznyl5b8GPecYZE8sWf-6">
          <mxGeometry x="161" width="144" height="42" as="geometry">
            <mxRectangle width="144" height="42" as="alternateBounds" />
          </mxGeometry>
        </mxCell>
        <mxCell id="udznyl5b8GPecYZE8sWf-9" value="&lt;div&gt;Argon2Id&lt;/div&gt;" style="connectable=0;recursiveResize=0;align=center;whiteSpace=wrap;html=1;" vertex="1" parent="udznyl5b8GPecYZE8sWf-6">
          <mxGeometry x="305" width="145" height="42" as="geometry">
            <mxRectangle width="145" height="42" as="alternateBounds" />
          </mxGeometry>
        </mxCell>
        <mxCell id="udznyl5b8GPecYZE8sWf-10" value="" style="shape=tableRow;horizontal=0;startSize=0;swimlaneHead=0;swimlaneBody=0;top=0;left=0;bottom=0;right=0;dropTarget=0;collapsible=0;recursiveResize=0;expand=0;fontStyle=1;strokeColor=inherit;fillColor=#EAF2D3;" vertex="1" parent="udznyl5b8GPecYZE8sWf-1">
          <mxGeometry y="85" width="450" height="41" as="geometry" />
        </mxCell>
        <mxCell id="udznyl5b8GPecYZE8sWf-11" value="Login Paciente&lt;span style=&quot;white-space: pre;&quot;&gt;&#x9;&lt;/span&gt;" style="connectable=0;recursiveResize=0;whiteSpace=wrap;html=1;" vertex="1" parent="udznyl5b8GPecYZE8sWf-10">
          <mxGeometry width="161" height="41" as="geometry">
            <mxRectangle width="161" height="41" as="alternateBounds" />
          </mxGeometry>
        </mxCell>
        <mxCell id="udznyl5b8GPecYZE8sWf-12" value="Auth Service" style="connectable=0;recursiveResize=0;whiteSpace=wrap;html=1;" vertex="1" parent="udznyl5b8GPecYZE8sWf-10">
          <mxGeometry x="161" width="144" height="41" as="geometry">
            <mxRectangle width="144" height="41" as="alternateBounds" />
          </mxGeometry>
        </mxCell>
        <mxCell id="udznyl5b8GPecYZE8sWf-13" value="Multilogin" style="connectable=0;recursiveResize=0;whiteSpace=wrap;html=1;" vertex="1" parent="udznyl5b8GPecYZE8sWf-10">
          <mxGeometry x="305" width="145" height="41" as="geometry">
            <mxRectangle width="145" height="41" as="alternateBounds" />
          </mxGeometry>
        </mxCell>
        <mxCell id="udznyl5b8GPecYZE8sWf-14" value="" style="shape=tableRow;horizontal=0;startSize=0;swimlaneHead=0;swimlaneBody=0;top=0;left=0;bottom=0;right=0;dropTarget=0;collapsible=0;recursiveResize=0;expand=0;fontStyle=0;strokeColor=inherit;fillColor=#ffffff;" vertex="1" parent="udznyl5b8GPecYZE8sWf-1">
          <mxGeometry y="126" width="450" height="43" as="geometry" />
        </mxCell>
        <mxCell id="udznyl5b8GPecYZE8sWf-15" value="Cadastro horários do médico" style="connectable=0;recursiveResize=0;strokeColor=inherit;fillColor=inherit;fontStyle=0;align=center;whiteSpace=wrap;html=1;" vertex="1" parent="udznyl5b8GPecYZE8sWf-14">
          <mxGeometry width="161" height="43" as="geometry">
            <mxRectangle width="161" height="43" as="alternateBounds" />
          </mxGeometry>
        </mxCell>
        <mxCell id="udznyl5b8GPecYZE8sWf-16" value="AgendaService" style="connectable=0;recursiveResize=0;strokeColor=inherit;fillColor=inherit;fontStyle=0;align=center;whiteSpace=wrap;html=1;" vertex="1" parent="udznyl5b8GPecYZE8sWf-14">
          <mxGeometry x="161" width="144" height="43" as="geometry">
            <mxRectangle width="144" height="43" as="alternateBounds" />
          </mxGeometry>
        </mxCell>
        <mxCell id="udznyl5b8GPecYZE8sWf-17" value="Value 9" style="connectable=0;recursiveResize=0;strokeColor=inherit;fillColor=inherit;fontStyle=0;align=center;whiteSpace=wrap;html=1;" vertex="1" parent="udznyl5b8GPecYZE8sWf-14">
          <mxGeometry x="305" width="145" height="43" as="geometry">
            <mxRectangle width="145" height="43" as="alternateBounds" />
          </mxGeometry>
        </mxCell>
        <mxCell id="udznyl5b8GPecYZE8sWf-18" value="" style="shape=tableRow;horizontal=0;startSize=0;swimlaneHead=0;swimlaneBody=0;top=0;left=0;bottom=0;right=0;dropTarget=0;collapsible=0;recursiveResize=0;expand=0;fontStyle=1;strokeColor=inherit;fillColor=#EAF2D3;" vertex="1" parent="udznyl5b8GPecYZE8sWf-1">
          <mxGeometry y="169" width="450" height="41" as="geometry" />
        </mxCell>
        <mxCell id="udznyl5b8GPecYZE8sWf-19" value="Aceitar/ Recusar Consultas" style="connectable=0;recursiveResize=0;whiteSpace=wrap;html=1;" vertex="1" parent="udznyl5b8GPecYZE8sWf-18">
          <mxGeometry width="161" height="41" as="geometry">
            <mxRectangle width="161" height="41" as="alternateBounds" />
          </mxGeometry>
        </mxCell>
        <mxCell id="udznyl5b8GPecYZE8sWf-20" value="AgendaService" style="connectable=0;recursiveResize=0;whiteSpace=wrap;html=1;" vertex="1" parent="udznyl5b8GPecYZE8sWf-18">
          <mxGeometry x="161" width="144" height="41" as="geometry">
            <mxRectangle width="144" height="41" as="alternateBounds" />
          </mxGeometry>
        </mxCell>
        <mxCell id="udznyl5b8GPecYZE8sWf-21" value="Status aceito/recusado" style="connectable=0;recursiveResize=0;whiteSpace=wrap;html=1;" vertex="1" parent="udznyl5b8GPecYZE8sWf-18">
          <mxGeometry x="305" width="145" height="41" as="geometry">
            <mxRectangle width="145" height="41" as="alternateBounds" />
          </mxGeometry>
        </mxCell>
        <mxCell id="udznyl5b8GPecYZE8sWf-22" value="" style="shape=tableRow;horizontal=0;startSize=0;swimlaneHead=0;swimlaneBody=0;top=0;left=0;bottom=0;right=0;dropTarget=0;collapsible=0;recursiveResize=0;expand=0;fontStyle=1;strokeColor=inherit;fillColor=#EAF2D3;" vertex="1" parent="udznyl5b8GPecYZE8sWf-1">
          <mxGeometry y="210" width="450" height="41" as="geometry" />
        </mxCell>
        <mxCell id="udznyl5b8GPecYZE8sWf-23" value="Listagem de médicos" style="connectable=0;recursiveResize=0;whiteSpace=wrap;html=1;" vertex="1" parent="udznyl5b8GPecYZE8sWf-22">
          <mxGeometry width="161" height="41" as="geometry">
            <mxRectangle width="161" height="41" as="alternateBounds" />
          </mxGeometry>
        </mxCell>
        <mxCell id="udznyl5b8GPecYZE8sWf-24" value="MedicoService" style="connectable=0;recursiveResize=0;whiteSpace=wrap;html=1;" vertex="1" parent="udznyl5b8GPecYZE8sWf-22">
          <mxGeometry x="161" width="144" height="41" as="geometry">
            <mxRectangle width="144" height="41" as="alternateBounds" />
          </mxGeometry>
        </mxCell>
        <mxCell id="udznyl5b8GPecYZE8sWf-25" value="Filtro por especialidade" style="connectable=0;recursiveResize=0;whiteSpace=wrap;html=1;" vertex="1" parent="udznyl5b8GPecYZE8sWf-22">
          <mxGeometry x="305" width="145" height="41" as="geometry">
            <mxRectangle width="145" height="41" as="alternateBounds" />
          </mxGeometry>
        </mxCell>
        <mxCell id="udznyl5b8GPecYZE8sWf-26" value="" style="shape=tableRow;horizontal=0;startSize=0;swimlaneHead=0;swimlaneBody=0;top=0;left=0;bottom=0;right=0;dropTarget=0;collapsible=0;recursiveResize=0;expand=0;fontStyle=1;strokeColor=inherit;fillColor=#EAF2D3;" vertex="1" parent="udznyl5b8GPecYZE8sWf-1">
          <mxGeometry y="251" width="450" height="41" as="geometry" />
        </mxCell>
        <mxCell id="udznyl5b8GPecYZE8sWf-27" value="Agendamento Consultas" style="connectable=0;recursiveResize=0;whiteSpace=wrap;html=1;" vertex="1" parent="udznyl5b8GPecYZE8sWf-26">
          <mxGeometry width="161" height="41" as="geometry">
            <mxRectangle width="161" height="41" as="alternateBounds" />
          </mxGeometry>
        </mxCell>
        <mxCell id="udznyl5b8GPecYZE8sWf-28" value="PacienteService + AgendaService" style="connectable=0;recursiveResize=0;whiteSpace=wrap;html=1;" vertex="1" parent="udznyl5b8GPecYZE8sWf-26">
          <mxGeometry x="161" width="144" height="41" as="geometry">
            <mxRectangle width="144" height="41" as="alternateBounds" />
          </mxGeometry>
        </mxCell>
        <mxCell id="udznyl5b8GPecYZE8sWf-29" value="Pagamento opcional" style="connectable=0;recursiveResize=0;whiteSpace=wrap;html=1;" vertex="1" parent="udznyl5b8GPecYZE8sWf-26">
          <mxGeometry x="305" width="145" height="41" as="geometry">
            <mxRectangle width="145" height="41" as="alternateBounds" />
          </mxGeometry>
        </mxCell>
        <mxCell id="udznyl5b8GPecYZE8sWf-30" value="" style="shape=tableRow;horizontal=0;startSize=0;swimlaneHead=0;swimlaneBody=0;top=0;left=0;bottom=0;right=0;dropTarget=0;collapsible=0;recursiveResize=0;expand=0;fontStyle=1;strokeColor=inherit;fillColor=#EAF2D3;" vertex="1" parent="udznyl5b8GPecYZE8sWf-1">
          <mxGeometry y="292" width="450" height="41" as="geometry" />
        </mxCell>
        <mxCell id="udznyl5b8GPecYZE8sWf-31" value="Cancelamento (paciente)" style="connectable=0;recursiveResize=0;whiteSpace=wrap;html=1;" vertex="1" parent="udznyl5b8GPecYZE8sWf-30">
          <mxGeometry width="161" height="41" as="geometry">
            <mxRectangle width="161" height="41" as="alternateBounds" />
          </mxGeometry>
        </mxCell>
        <mxCell id="udznyl5b8GPecYZE8sWf-32" value="PacienteService" style="connectable=0;recursiveResize=0;whiteSpace=wrap;html=1;" vertex="1" parent="udznyl5b8GPecYZE8sWf-30">
          <mxGeometry x="161" width="144" height="41" as="geometry">
            <mxRectangle width="144" height="41" as="alternateBounds" />
          </mxGeometry>
        </mxCell>
        <mxCell id="udznyl5b8GPecYZE8sWf-33" value="ExigeJustificativa" style="connectable=0;recursiveResize=0;whiteSpace=wrap;html=1;" vertex="1" parent="udznyl5b8GPecYZE8sWf-30">
          <mxGeometry x="305" width="145" height="41" as="geometry">
            <mxRectangle width="145" height="41" as="alternateBounds" />
          </mxGeometry>
        </mxCell>
      </root>
    </mxGraphModel>
  </diagram>
  <diagram id="wQUiy0kDMH0Kw3AXfXlL" name="Fluxo Cadastro">
    <mxGraphModel dx="1989" dy="1043" grid="1" gridSize="10" guides="1" tooltips="1" connect="1" arrows="1" fold="1" page="1" pageScale="1" pageWidth="827" pageHeight="1169" math="0" shadow="0">
      <root>
        <mxCell id="0" />
        <mxCell id="1" parent="0" />
        <mxCell id="V0hgRPTiFhIQsP_fNYT1-27" style="edgeStyle=orthogonalEdgeStyle;rounded=0;orthogonalLoop=1;jettySize=auto;html=1;" edge="1" parent="1" source="V0hgRPTiFhIQsP_fNYT1-1">
          <mxGeometry relative="1" as="geometry">
            <mxPoint x="410" y="195" as="targetPoint" />
          </mxGeometry>
        </mxCell>
        <mxCell id="V0hgRPTiFhIQsP_fNYT1-1" value="Preenche Formulário Cadastro" style="rounded=1;whiteSpace=wrap;html=1;" vertex="1" parent="1">
          <mxGeometry x="220" y="160" width="120" height="70" as="geometry" />
        </mxCell>
        <mxCell id="V0hgRPTiFhIQsP_fNYT1-6" style="edgeStyle=orthogonalEdgeStyle;rounded=0;orthogonalLoop=1;jettySize=auto;html=1;entryX=0;entryY=0.5;entryDx=0;entryDy=0;" edge="1" parent="1" source="V0hgRPTiFhIQsP_fNYT1-3" target="V0hgRPTiFhIQsP_fNYT1-1">
          <mxGeometry relative="1" as="geometry">
            <Array as="points">
              <mxPoint x="130" y="195" />
              <mxPoint x="130" y="195" />
            </Array>
          </mxGeometry>
        </mxCell>
        <mxCell id="V0hgRPTiFhIQsP_fNYT1-3" value="Médico&lt;div&gt;&lt;br&gt;&lt;/div&gt;" style="shape=umlActor;verticalLabelPosition=bottom;verticalAlign=top;html=1;outlineConnect=0;" vertex="1" parent="1">
          <mxGeometry x="80" y="160" width="30" height="60" as="geometry" />
        </mxCell>
        <mxCell id="V0hgRPTiFhIQsP_fNYT1-28" style="edgeStyle=orthogonalEdgeStyle;rounded=0;orthogonalLoop=1;jettySize=auto;html=1;entryX=0;entryY=0.5;entryDx=0;entryDy=0;" edge="1" parent="1" source="V0hgRPTiFhIQsP_fNYT1-8" target="V0hgRPTiFhIQsP_fNYT1-11">
          <mxGeometry relative="1" as="geometry" />
        </mxCell>
        <mxCell id="V0hgRPTiFhIQsP_fNYT1-8" value="Encaminha para MedicoService" style="rounded=1;whiteSpace=wrap;html=1;" vertex="1" parent="1">
          <mxGeometry x="414" y="155" width="140" height="70" as="geometry" />
        </mxCell>
        <mxCell id="V0hgRPTiFhIQsP_fNYT1-29" style="edgeStyle=orthogonalEdgeStyle;rounded=0;orthogonalLoop=1;jettySize=auto;html=1;" edge="1" parent="1" source="V0hgRPTiFhIQsP_fNYT1-11">
          <mxGeometry relative="1" as="geometry">
            <mxPoint x="690" y="270" as="targetPoint" />
          </mxGeometry>
        </mxCell>
        <mxCell id="V0hgRPTiFhIQsP_fNYT1-11" value="Valida os dados do cadastro do médico" style="rounded=1;whiteSpace=wrap;html=1;" vertex="1" parent="1">
          <mxGeometry x="620" y="155" width="140" height="70" as="geometry" />
        </mxCell>
        <mxCell id="V0hgRPTiFhIQsP_fNYT1-30" style="edgeStyle=orthogonalEdgeStyle;rounded=0;orthogonalLoop=1;jettySize=auto;html=1;" edge="1" parent="1" source="V0hgRPTiFhIQsP_fNYT1-12">
          <mxGeometry relative="1" as="geometry">
            <mxPoint x="800" y="315" as="targetPoint" />
          </mxGeometry>
        </mxCell>
        <mxCell id="V0hgRPTiFhIQsP_fNYT1-31" style="edgeStyle=orthogonalEdgeStyle;rounded=0;orthogonalLoop=1;jettySize=auto;html=1;" edge="1" parent="1" source="V0hgRPTiFhIQsP_fNYT1-12" target="V0hgRPTiFhIQsP_fNYT1-13">
          <mxGeometry relative="1" as="geometry" />
        </mxCell>
        <mxCell id="V0hgRPTiFhIQsP_fNYT1-12" value="Persiste dados&amp;nbsp;" style="rounded=1;whiteSpace=wrap;html=1;" vertex="1" parent="1">
          <mxGeometry x="620" y="280" width="140" height="70" as="geometry" />
        </mxCell>
        <mxCell id="V0hgRPTiFhIQsP_fNYT1-32" style="edgeStyle=orthogonalEdgeStyle;rounded=0;orthogonalLoop=1;jettySize=auto;html=1;" edge="1" parent="1" source="V0hgRPTiFhIQsP_fNYT1-13">
          <mxGeometry relative="1" as="geometry">
            <mxPoint x="970" y="425" as="targetPoint" />
          </mxGeometry>
        </mxCell>
        <mxCell id="V0hgRPTiFhIQsP_fNYT1-13" value="Emite evento dominio" style="rounded=1;whiteSpace=wrap;html=1;" vertex="1" parent="1">
          <mxGeometry x="620" y="390" width="140" height="70" as="geometry" />
        </mxCell>
        <mxCell id="V0hgRPTiFhIQsP_fNYT1-14" value="Persiste modelo de leitura" style="rounded=1;whiteSpace=wrap;html=1;" vertex="1" parent="1">
          <mxGeometry x="810" y="280" width="140" height="70" as="geometry" />
        </mxCell>
        <mxCell id="V0hgRPTiFhIQsP_fNYT1-33" style="edgeStyle=orthogonalEdgeStyle;rounded=0;orthogonalLoop=1;jettySize=auto;html=1;" edge="1" parent="1" source="V0hgRPTiFhIQsP_fNYT1-15">
          <mxGeometry relative="1" as="geometry">
            <mxPoint x="1050" y="510" as="targetPoint" />
          </mxGeometry>
        </mxCell>
        <mxCell id="V0hgRPTiFhIQsP_fNYT1-15" value="Cria uma nova agenda para o medico" style="rounded=1;whiteSpace=wrap;html=1;" vertex="1" parent="1">
          <mxGeometry x="980" y="390" width="140" height="70" as="geometry" />
        </mxCell>
        <mxCell id="V0hgRPTiFhIQsP_fNYT1-16" value="" style="endArrow=none;dashed=1;html=1;dashPattern=1 3;strokeWidth=2;rounded=0;" edge="1" parent="1">
          <mxGeometry width="50" height="50" relative="1" as="geometry">
            <mxPoint x="200" y="760" as="sourcePoint" />
            <mxPoint x="200" y="120" as="targetPoint" />
          </mxGeometry>
        </mxCell>
        <mxCell id="V0hgRPTiFhIQsP_fNYT1-17" value="" style="endArrow=none;dashed=1;html=1;dashPattern=1 3;strokeWidth=2;rounded=0;" edge="1" parent="1">
          <mxGeometry width="50" height="50" relative="1" as="geometry">
            <mxPoint x="380" y="770" as="sourcePoint" />
            <mxPoint x="380" y="120" as="targetPoint" />
          </mxGeometry>
        </mxCell>
        <mxCell id="V0hgRPTiFhIQsP_fNYT1-18" value="" style="endArrow=none;dashed=1;html=1;dashPattern=1 3;strokeWidth=2;rounded=0;" edge="1" parent="1">
          <mxGeometry width="50" height="50" relative="1" as="geometry">
            <mxPoint x="580" y="770" as="sourcePoint" />
            <mxPoint x="580" y="120" as="targetPoint" />
          </mxGeometry>
        </mxCell>
        <mxCell id="V0hgRPTiFhIQsP_fNYT1-19" value="" style="endArrow=none;dashed=1;html=1;dashPattern=1 3;strokeWidth=2;rounded=0;" edge="1" parent="1">
          <mxGeometry width="50" height="50" relative="1" as="geometry">
            <mxPoint x="780" y="780" as="sourcePoint" />
            <mxPoint x="780" y="120" as="targetPoint" />
          </mxGeometry>
        </mxCell>
        <mxCell id="V0hgRPTiFhIQsP_fNYT1-20" value="" style="endArrow=none;dashed=1;html=1;dashPattern=1 3;strokeWidth=2;rounded=0;" edge="1" parent="1">
          <mxGeometry width="50" height="50" relative="1" as="geometry">
            <mxPoint x="960" y="790" as="sourcePoint" />
            <mxPoint x="960" y="120" as="targetPoint" />
          </mxGeometry>
        </mxCell>
        <mxCell id="V0hgRPTiFhIQsP_fNYT1-21" value="" style="endArrow=none;dashed=1;html=1;dashPattern=1 3;strokeWidth=2;rounded=0;" edge="1" parent="1">
          <mxGeometry width="50" height="50" relative="1" as="geometry">
            <mxPoint x="1140" y="630" as="sourcePoint" />
            <mxPoint x="1140" y="120" as="targetPoint" />
          </mxGeometry>
        </mxCell>
        <mxCell id="V0hgRPTiFhIQsP_fNYT1-22" value="WebApp" style="text;html=1;align=center;verticalAlign=middle;resizable=0;points=[];autosize=1;strokeColor=none;fillColor=none;" vertex="1" parent="1">
          <mxGeometry x="245" y="90" width="70" height="30" as="geometry" />
        </mxCell>
        <mxCell id="V0hgRPTiFhIQsP_fNYT1-23" value="Exibe a tela de cadastro da agenda" style="rounded=1;whiteSpace=wrap;html=1;" vertex="1" parent="1">
          <mxGeometry x="220" y="510" width="140" height="70" as="geometry" />
        </mxCell>
        <mxCell id="V0hgRPTiFhIQsP_fNYT1-34" style="edgeStyle=orthogonalEdgeStyle;rounded=0;orthogonalLoop=1;jettySize=auto;html=1;" edge="1" parent="1" source="V0hgRPTiFhIQsP_fNYT1-24">
          <mxGeometry relative="1" as="geometry">
            <mxPoint x="1050" y="640" as="targetPoint" />
          </mxGeometry>
        </mxCell>
        <mxCell id="V0hgRPTiFhIQsP_fNYT1-24" value="Valida e atualiza a agenda" style="rounded=1;whiteSpace=wrap;html=1;" vertex="1" parent="1">
          <mxGeometry x="980" y="520" width="140" height="70" as="geometry" />
        </mxCell>
        <mxCell id="V0hgRPTiFhIQsP_fNYT1-35" style="edgeStyle=orthogonalEdgeStyle;rounded=0;orthogonalLoop=1;jettySize=auto;html=1;entryX=1;entryY=0.5;entryDx=0;entryDy=0;" edge="1" parent="1" source="V0hgRPTiFhIQsP_fNYT1-25" target="V0hgRPTiFhIQsP_fNYT1-26">
          <mxGeometry relative="1" as="geometry" />
        </mxCell>
        <mxCell id="V0hgRPTiFhIQsP_fNYT1-25" value="Persiste dados da agenda" style="rounded=1;whiteSpace=wrap;html=1;" vertex="1" parent="1">
          <mxGeometry x="980" y="650" width="140" height="70" as="geometry" />
        </mxCell>
        <mxCell id="V0hgRPTiFhIQsP_fNYT1-26" value="&lt;span style=&quot;color: rgb(255, 255, 255); font-family: Helvetica; font-size: 12px; font-style: normal; font-variant-ligatures: normal; font-variant-caps: normal; font-weight: 400; letter-spacing: normal; orphans: 2; text-align: center; text-indent: 0px; text-transform: none; widows: 2; word-spacing: 0px; -webkit-text-stroke-width: 0px; white-space: normal; background-color: rgb(27, 29, 30); text-decoration-thickness: initial; text-decoration-style: initial; text-decoration-color: initial; display: inline !important; float: none;&quot;&gt;Persiste modelo de leitura&lt;/span&gt;" style="rounded=1;whiteSpace=wrap;html=1;" vertex="1" parent="1">
          <mxGeometry x="810" y="650" width="140" height="70" as="geometry" />
        </mxCell>
      </root>
    </mxGraphModel>
  </diagram>
</mxfile>
